<svg width="29" height="28" viewBox="0 0 29 28" fill="none" xmlns="http://www.w3.org/2000/svg">
    <path d="M19.1452 24.6094H6.17984C5.4859 24.6087 4.82059 24.3327 4.3299 23.842C3.83921 23.3513 3.56322 22.686 3.5625 21.992V14.2543C3.56322 13.5604 3.83921 12.8951 4.3299 12.4044C4.82059 11.9137 5.4859 11.6377 6.17984 11.637H19.1452C19.8391 11.6377 20.5044 11.9137 20.9951 12.4044C21.4858 12.8951 21.7618 13.5604 21.7625 14.2543V21.992C21.7618 22.686 21.4858 23.3513 20.9951 23.842C20.5044 24.3327 19.8391 24.6087 19.1452 24.6094ZM6.17984 13.2776C5.92089 13.2779 5.67263 13.3809 5.48952 13.564C5.30641 13.7471 5.20341 13.9954 5.20312 14.2543V21.992C5.20341 22.251 5.30641 22.4993 5.48952 22.6824C5.67263 22.8655 5.92089 22.9685 6.17984 22.9688H19.1452C19.4041 22.9685 19.6524 22.8655 19.8355 22.6824C20.0186 22.4993 20.1216 22.251 20.1219 21.992V14.2543C20.1216 13.9954 20.0186 13.7471 19.8355 13.564C19.6524 13.3809 19.4041 13.2779 19.1452 13.2776H6.17984Z"
          fill="#FFBB38"/>
    <path d="M22.8212 20.1917H20.9421C20.7246 20.1917 20.5159 20.1053 20.3621 19.9515C20.2082 19.7976 20.1218 19.589 20.1218 19.3714C20.1218 19.1538 20.2082 18.9452 20.3621 18.7914C20.5159 18.6375 20.7246 18.5511 20.9421 18.5511H22.8212C23.0799 18.5505 23.3279 18.4474 23.5108 18.2643C23.6937 18.0812 23.7965 17.8331 23.7968 17.5744V9.83664C23.7967 9.57778 23.6939 9.32954 23.511 9.14635C23.3281 8.96315 23.08 8.85995 22.8212 8.85938H9.85587C9.59692 8.85966 9.34865 8.96266 9.16554 9.14577C8.98244 9.32888 8.87944 9.57714 8.87915 9.83609V12.4567C8.87915 12.6743 8.79272 12.8829 8.63889 13.0368C8.48505 13.1906 8.2764 13.277 8.05884 13.277C7.84128 13.277 7.63263 13.1906 7.47879 13.0368C7.32495 12.8829 7.23853 12.6743 7.23853 12.4567V9.83664C7.2391 9.1426 7.51503 8.47715 8.00573 7.98635C8.49644 7.49554 9.16183 7.21947 9.85587 7.21875H22.8212C23.515 7.21976 24.1801 7.49595 24.6706 7.98673C25.1611 8.47751 25.4369 9.14279 25.4374 9.83664V17.5744C25.4367 18.2681 25.1609 18.9333 24.6704 19.4239C24.18 19.9146 23.5149 20.1907 22.8212 20.1917Z"
          fill="#FFBB38"/>
    <path d="M20.9422 18.7463H4.38281C4.16525 18.7463 3.9566 18.6599 3.80276 18.5061C3.64893 18.3522 3.5625 18.1436 3.5625 17.926V15.1709C3.5625 14.9533 3.64893 14.7447 3.80276 14.5908C3.9566 14.437 4.16525 14.3506 4.38281 14.3506H20.9422C21.1597 14.3506 21.3684 14.437 21.5222 14.5908C21.6761 14.7447 21.7625 14.9533 21.7625 15.1709V17.926C21.7625 18.1436 21.6761 18.3522 21.5222 18.5061C21.3684 18.6599 21.1597 18.7463 20.9422 18.7463ZM5.20312 17.1057H20.1219V15.9912H5.20312V17.1057Z"
          fill="#FFBB38"/>
</svg>
